PathFileType	4	(X/Y/Z)	66_2_78_p0_0-241.trc
DataRate	CameraRate	NumFrames	NumMarkers	Units	OrigDataRate	OrigDataStartFrame	OrigNumFrames
60.0	60.0	7	27	m	60.0	0	242
Frame#	Time	RHip			RKnee			RAnkle			RBigToe			RSmallToe			RHeel			LHip			LKnee			LAnkle			LBigToe			LSmallToe			LHeel			Neck			Head			Nose			RShoulder			RElbow			RWrist			RThumb			RIndex			RPinky			LShoulder			LElbow			LWrist			LThumb			LIndex			LPinky			
		X1	Y1	Z1	X2	Y2	Z2	X3	Y3	Z3	X4	Y4	Z4	X5	Y5	Z5	X6	Y6	Z6	X7	Y7	Z7	X8	Y8	Z8	X9	Y9	Z9	X10	Y10	Z10	X11	Y11	Z11	X12	Y12	Z12	X13	Y13	Z13	X14	Y14	Z14	X15	Y15	Z15	X16	Y16	Z16	X17	Y17	Z17	X18	Y18	Z18	X19	Y19	Z19	X20	Y20	Z20	X21	Y21	Z21	X22	Y22	Z22	X23	Y23	Z23	X24	Y24	Z24	X25	Y25	Z25	X26	Y26	Z26	X27	Y27	Z27	
0	0.0	0.5348389298193288	0.8876396234000463	0.8113971486881636	0.5355501494420378	1.0071513749163719	1.2240607542625377	0.5196958050747783	1.1691986283620632	1.62441979059243	0.4934104204737223	0.9126799982796503	1.660368304377027	0.5574046829358253	0.9513555349063139	1.6571259554461348	0.5022587129856103	1.2426584696548275	1.6760946475807426	0.3391071889574635	0.8985811173568846	0.8180014677977789	0.3316207200888875	1.0221157380642274	1.2196982906394591	0.3269187875200786	1.156347480680921	1.5992051718366493	0.3263001312322939	0.9123472056684	1.6334071021900889	0.2762576346606755	1.0049744834771508	1.6401365850987053	0.3525268434353762	1.2109117950259676	1.651881468694105	0.4539583379992723	0.7868226819042407	0.26799549398287287	0.45975624016031236	0.6817225006093689	0.03287365217874363	0.43457157374951466	0.605777066181008	0.16579523888016687	0.589213910338132	0.7601679577807222	0.36752349546619967	0.6359254547250767	0.7851918817898813	0.6148360199169345	0.48382794082411384	0.6830382872468214	0.7782387241635799	0.40555628736094024	0.7164933299972179	0.8438926403431246	0.3963688902437172	0.7545416023901304	0.8794271473503832	0.4005953444737646	0.7573653731777719	0.8847380282457439	0.304258675273923	0.8382887128540482	0.34212754623872005	0.24730320380062992	0.8150944651595888	0.5985989447146431	0.36072804971777955	0.7084548145335868	0.7711793967010643	0.45735774968325854	0.6720805812529405	0.8082920741417061	0.44763556008596517	0.7126489148549001	0.8610186209479257	0.39353639540291446	0.7049680362784122	0.8801603116094393
1	0.016666666666666666	0.5305645000048259	0.8861450395600218	0.8149483250723134	0.5401616120068812	1.021842667425079	1.2276976879188863	0.5196216492429588	1.1692063271895972	1.6243448595869192	0.4923855557837117	0.9064852780968402	1.6484512583130528	0.5605525365304221	0.9341717565601314	1.6419445688393246	0.49677338877346033	1.2367990525600323	1.6692551504468154	0.33921946003387293	0.8977114243925642	0.8210974504398912	0.3316593071162563	1.0224436087464208	1.219816506917498	0.32629892678815897	1.1532183381595746	1.5934254856299983	0.3301693201058507	0.9265962418321175	1.638805066799358	0.27708303390152533	0.9874438472176339	1.6330400393383506	0.35214440217504767	1.2122156584434347	1.6439016110902362	0.45413764836185766	0.7866211443049828	0.26796898767235117	0.4598503360464994	0.6816102601934153	0.032976630828592556	0.4344037739782439	0.6063286321067136	0.16924981347084617	0.5931939970827466	0.7600796105303168	0.36364713917446534	0.6333403673270491	0.8000665972855641	0.6156783872959518	0.48433553019066233	0.681877858004597	0.7747604972784055	0.40627493635807105	0.7151896368503419	0.8397624706998664	0.39244296138136286	0.7424688316239725	0.8774477533537517	0.4005295341941743	0.7581802170498465	0.8847882995084735	0.30421780116859826	0.8377707972548323	0.34186200595444677	0.24346497343340223	0.8126862348363141	0.5950049606241681	0.3564255406101811	0.7073159818012201	0.7708921939393988	0.45268880214379265	0.6720812956772999	0.8080546698278814	0.4479243607282455	0.7120056323630052	0.8603965959300321	0.3945663311253754	0.7045439498091185	0.8762903998718244
2	0.03333333333333333	0.534946705578362	0.8869616058267227	0.8151336281874201	0.535497134249383	1.0068453182152421	1.2243203037137493	0.5196563058551569	1.1693674853995473	1.624350128034064	0.4940490383464959	0.9088710093521539	1.6542840272334118	0.5611286762979132	0.9342706902870948	1.642175217450731	0.49777635332499964	1.2400527601607834	1.674958866000802	0.33989672875607096	0.8969886882362389	0.8174998605400875	0.33172976919638547	1.0227733022876029	1.2199998833167782	0.3263138365800622	1.1531682253126896	1.5932080327582696	0.33007232398192854	0.9268400047195675	1.6387566197104384	0.27689719077479097	0.988221911840365	1.633411068826515	0.352451673587405	1.2133742227710824	1.644308971288327	0.45417198617069077	0.7865045924841673	0.26800803471480156	0.4598873209689187	0.6817109301177834	0.032994993556372164	0.4343994777350258	0.6062839736878216	0.16923795962883323	0.5931454373602155	0.7596841189302371	0.3638434531076936	0.6330856313948109	0.800655235169836	0.6157470246264547	0.48129629928119233	0.6957669720651456	0.7764623175994949	0.40300326223169036	0.7153994232866535	0.8398197903099042	0.39174139222203114	0.7412966730268922	0.8699040388246878	0.39702316769559803	0.7732010447658544	0.8866041868506896	0.3012924545883518	0.8248652843140085	0.3423950915054056	0.24335833188780873	0.8125541822042083	0.5949911961951057	0.3556214072209455	0.7062566248524865	0.7634540915881154	0.4484563922675555	0.685929400042966	0.8063609149505522	0.4485471136617726	0.7113746266239318	0.8569411404105217	0.3949774872239605	0.7055535253102961	0.8763936316698839
3	0.05	0.5348553422575182	0.8871392761395542	0.8150685665028332	0.5363185224493213	1.0094481853826118	1.2293290490479727	0.5196785868158948	1.1695217416131443	1.6245730346168987	0.49344048327670703	0.9084521133180548	1.6540908410485167	0.5604927219622092	0.934006356572134	1.6419979741222461	0.49795308867039484	1.2407865560774993	1.675455702483789	0.3397546438500315	0.8975080921718663	0.8142335643976824	0.3323504781204714	1.0253800819499241	1.2253037175417845	0.32635790839805084	1.1532903749561347	1.59333187475165	0.33013184547012503	0.9274323489278213	1.6393001722327216	0.2767817980529173	0.9885129553633666	1.6336703167468878	0.35651689664401853	1.2296132057921025	1.650053426961135	0.45422337908872285	0.7864360508792744	0.2680290673799817	0.4599548958537993	0.6816872564559886	0.03302727115960899	0.43440344611494336	0.6061328861590961	0.16925548129740695	0.5895302503253032	0.7596361508617764	0.3638418552153354	0.6330180554858287	0.800664027463135	0.615720664428741	0.4815520669172846	0.6955238539931538	0.7763940135042581	0.4074291307965631	0.7142432244430615	0.8359236403562559	0.39233154434063905	0.7671361181953377	0.8696832308268468	0.39732277205412714	0.773983159295352	0.8863857285885309	0.30580165570418816	0.826630938677608	0.34239675037299844	0.2383213126429394	0.8277001079116605	0.5991883490162714	0.35092854461695316	0.7046241241429899	0.7632356311037217	0.44763938549004123	0.6846178503777683	0.7986564165425432	0.447434989053853	0.7113451547707275	0.8568128954216172	0.40250116010093234	0.719428896699307	0.8785530924003776
4	0.06666666666666667	0.5348291315863534	0.8876596097820483	0.8113878274918497	0.534646603903395	1.0086362724615299	1.2291451211999833	0.5186611865571469	1.1709602730299076	1.6291066923933655	0.4940192385899326	0.9092339847900456	1.6544289200426003	0.5613157271159773	0.93504101136006	1.6424068620144159	0.4979733728956073	1.2404220080597934	1.6753315755320526	0.3398001259530563	0.8974356434836172	0.8143740275543321	0.3306438245195665	1.0242402355116953	1.2244055033197683	0.3265568171099319	1.1535793901967795	1.593556315320034	0.3302152347003053	0.9276883561505378	1.6394650866504636	0.2768007917753225	0.9887441191642231	1.633790662083072	0.35263063028339614	1.2144925333339094	1.6449530332825946	0.4543061210554833	0.786374943561235	0.2680371414812062	0.45986912868731955	0.681668977575391	0.03297641807970074	0.43443908968909856	0.6060894134546926	0.16927168757894548	0.5895373741689788	0.7597508091934245	0.3638223072678044	0.6329277847941084	0.8006584325949088	0.6156546986334871	0.48178208022644414	0.6951529460221446	0.7763497959292516	0.40777426347085444	0.7137103920017752	0.8358532926848298	0.39641526896439633	0.7524643663478375	0.8672812298242187	0.3975172062448418	0.773666054792724	0.8860883130484156	0.30131121405917727	0.8245515875906475	0.34245266163366256	0.23821379618563912	0.8274219771105337	0.5992040735086163	0.3473194256770465	0.7207884015630215	0.7686788117021165	0.4524999381885224	0.6714876290015123	0.7901075478302901	0.4476200320481595	0.7110978287928869	0.8565144073547132	0.40666111653523224	0.7330686057289091	0.8768394325921334
5	0.08333333333333333	0.5354214505204085	0.8866169920046473	0.8073934260577369	0.5355362675095476	1.0110774403993958	1.2338864584038056	0.5186819322267547	1.1709225272799482	1.6292073517309593	0.4994188771110386	0.9234048620624986	1.6599503615664786	0.5616980612699443	0.9336363629231987	1.642291105697685	0.5027242821558475	1.241981074387108	1.6762977184260859	0.3397568814293272	0.8976870540793395	0.8142630928159671	0.3325348025247967	1.0242953182980448	1.2291858881475963	0.32635652491219913	1.1532399406758356	1.5935057759238918	0.3300646524449555	0.9272875540764395	1.6391816899849463	0.2767153037206966	0.9881851595431919	1.6334770269050891	0.3521915440117632	1.2180873971210668	1.65555919363461	0.45431724757487413	0.7865055684206709	0.26797473459175725	0.45993762446830994	0.6815426520529007	0.03301298539221275	0.4344052049773923	0.606085183305863	0.16924854687190122	0.5896218489892844	0.7598510499737025	0.36378439204791657	0.6327892659568368	0.8011872986977993	0.6117330534337572	0.48185400696321273	0.695055066429238	0.7763613701609644	0.40772038586180304	0.7140873855426536	0.8359808617665023	0.39643720157429047	0.7525568470411754	0.8672809455340784	0.40159825744953365	0.7592940364991393	0.8837969825003906	0.3056237279395777	0.8246648694814965	0.3389520860973082	0.23821000287629565	0.8274345121636182	0.5992538018354343	0.3507413717169829	0.7050066877635137	0.7633422846553285	0.4484360789810192	0.6855344245280232	0.7952563228245829	0.44725452207391586	0.7118440712245704	0.8567714284494927	0.40680649843190075	0.7333057476751866	0.8768411281951863
6	0.1	0.535277930639065	0.8864826707139064	0.8074329091637278	0.5354709605240586	1.0109887324678417	1.2339615727484021	0.5140172192310493	1.154049874288904	1.6231165159689664	0.4941909813631016	0.9101269623966772	1.6592196908275672	0.5623686774032409	0.9334105893161211	1.6423664100031719	0.5026451298500256	1.2421689662279218	1.67622841696565	0.33609259165738753	0.8971911875167666	0.8143301950498224	0.33231963765842487	1.0253278821754963	1.2254451507658033	0.3264082133878769	1.1529806477623976	1.5932878343284018	0.33006812999125973	0.9274075289698753	1.6393687560599488	0.27676240604931746	0.9883892039642224	1.6336921907680166	0.35245109609185765	1.2125206225687826	1.6440631819797367	0.45429359652085743	0.7865005887688461	0.26799554657469715	0.4599972278613406	0.6817595807221376	0.033040315326110334	0.4344138028724019	0.6062277688677853	0.16927213295569216	0.5895107428629175	0.7599246207470802	0.3637279679599128	0.6324506577348581	0.8004185897061167	0.6115529648416627	0.48498569280949116	0.681119801746504	0.7745109338052918	0.4117895250276923	0.7011587589676077	0.8340100485231552	0.4004160223679204	0.7384426752713422	0.8652790597609831	0.39767090187927034	0.7734228085121004	0.8859911279624062	0.30133573786046935	0.8247784057322842	0.3423769838746021	0.2388290754523558	0.8270660494203159	0.5958744290214645	0.3514209056946247	0.7073102972793055	0.7671990689872695	0.4483170136666058	0.6855586818906566	0.7952939089801535	0.4485471700114839	0.7257075231366915	0.8588649542854918	0.41019377966921944	0.7443032752665035	0.8822373587665816
